<svg xmlns="http://www.w3.org/2000/svg" viewBox="0 0 300 300"><path transform="translate(0 300) scale(1 -1)" d="M150 273Q192 273 211 272Q241 271 256.0 256.0Q271 241 272 211Q273 192 273.0 150.0Q273 108 272 89Q271 59 256.0 44.0Q241 29 211 28Q192 27 150.0 27.0Q108 27 89 28Q59 29 44.0 44.0Q29 59 28 89Q27 108 27.0 150.0Q27 192 28 211Q29 241 44.0 256.0Q59 271 89 272Q108 273 150 273ZM150 300Q108 300 88 299Q48 297 25.5 274.5Q3 252 1 212Q0 192 0.0 150.0Q0 108 1 88Q3 48 25.5 25.5Q48 3 88 1Q108 0 150.0 0.0Q192 0 212 1Q252 3 274.5 25.5Q297 48 299 88Q300 108 300.0 150.0Q300 192 299 212Q297 252 274.5 274.5Q252 297 212 299Q192 300 150 300ZM150 227Q129 227 111.5 216.5Q94 206 83.5 188.5Q73 171 73.0 150.0Q73 129 83.5 111.5Q94 94 111.5 83.5Q129 73 150.0 73.0Q171 73 188.5 83.5Q206 94 216.5 111.5Q227 129 227.0 150.0Q227 171 216.5 188.5Q206 206 188.5 216.5Q171 227 150 227ZM150 100Q129 100 114.5 114.5Q100 129 100.0 150.0Q100 171 114.5 185.5Q129 200 150.0 200.0Q171 200 185.5 185.5Q200 171 200.0 150.0Q200 129 185.5 114.5Q171 100 150 100ZM212 230Q212 223 217.5 217.5Q223 212 230.5 212.0Q238 212 243.0 217.5Q248 223 248.0 230.5Q248 238 243.0 243.0Q238 248 230.5 248.0Q223 248 217.5 243.0Q212 238 212 230Z"/></svg>